<svg width="25" height="23" viewBox="0 0 25 23" fill="none" xmlns="http://www.w3.org/2000/svg">
<path d="M18.75 7.66732H19.7917C20.8968 7.66732 21.9566 8.07119 22.738 8.79007C23.5194 9.50896 23.9584 10.484 23.9584 11.5007C23.9584 12.5173 23.5194 13.4923 22.738 14.2112C21.9566 14.9301 20.8968 15.334 19.7917 15.334H18.75M18.75 7.66732H2.08337V16.2923C2.08337 17.309 2.52236 18.284 3.30376 19.0029C4.08516 19.7218 5.14497 20.1256 6.25004 20.1256H14.5834C15.6884 20.1256 16.7482 19.7218 17.5297 19.0029C18.3111 18.284 18.75 17.309 18.75 16.2923V7.66732ZM6.25004 0.958984V3.83398M10.4167 0.958984V3.83398M14.5834 0.958984V3.83398" stroke="#BA7911" stroke-width="1.6" stroke-linecap="round" stroke-linejoin="round"/>
</svg>
