<svg width="21" height="21" viewBox="0 0 21 21" fill="none" xmlns="http://www.w3.org/2000/svg">
<path d="M19.5963 8.70745C19.6933 9.28841 19.75 9.88523 19.75 10.5138C19.75 13.4184 18.6984 15.8692 16.8704 17.5323C15.2689 18.9886 13.077 19.848 10.4563 19.848C6.66272 19.848 3.38687 17.6994 1.79342 14.5801C1.13016 13.291 0.75 11.8428 0.75 10.299C0.75 8.7552 1.13016 7.30697 1.79342 6.01786C3.38687 2.89852 6.66272 0.75 10.4563 0.75C13.077 0.75 15.2689 1.69694 16.9432 3.24069L14.177 5.96216C13.1659 5.01522 11.8879 4.5298 10.4563 4.5298C7.92453 4.5298 5.78107 6.20884 5.01266 8.47675C4.81854 9.04969 4.70529 9.66235 4.70529 10.299C4.70529 10.9356 4.81044 11.5483 5.01266 12.1212C5.78107 14.3891 7.92453 16.0682 10.4563 16.0682C11.7666 16.0682 12.8747 15.718 13.7482 15.1451C14.7674 14.4687 15.455 13.474 15.6895 12.2963H10.4563V8.70745H19.5963Z" stroke="#E5E5E5" stroke-width="1.5" stroke-linejoin="round"/>
</svg>
