<svg width="19" height="20" viewBox="0 0 19 20" fill="none" xmlns="http://www.w3.org/2000/svg">
<path fill-rule="evenodd" clip-rule="evenodd" d="M5.57617 0.117194C4.02968 0.187331 2.68927 0.567378 1.60692 1.65072C0.520785 2.73975 0.147384 4.09241 0.077433 5.63071C0.0339496 6.59084 -0.220318 13.8444 0.517005 15.7467C1.01423 17.03 1.99352 18.0167 3.28194 18.5181C3.88315 18.7532 4.56944 18.9123 5.57617 18.9587C13.9939 19.3416 17.1143 19.1332 18.4302 15.7467C18.6637 15.1439 18.8244 14.4546 18.8688 13.4452C19.2535 4.96233 18.8064 3.12361 17.3393 1.65072C16.1757 0.483968 14.8069 -0.310266 5.57617 0.117194ZM5.65367 17.2527C4.73201 17.211 4.23196 17.0566 3.89828 16.9268C3.05886 16.5988 2.42836 15.9677 2.10413 15.1289C1.54263 13.6835 1.72886 6.81847 1.77896 5.70764C1.82811 4.61955 2.04741 3.62512 2.81121 2.8574C3.75649 1.90958 4.97779 1.44507 13.2935 1.8223C14.3787 1.87159 15.3703 2.09157 16.136 2.8574C17.0813 3.8052 17.5501 5.04225 17.1682 13.3687C17.1266 14.2929 16.9725 14.7943 16.843 15.1289C15.9876 17.3325 14.0195 17.6384 5.65367 17.2527ZM13.3852 4.47811C13.3852 5.10557 13.8928 5.61579 14.5195 5.61579C15.1463 5.61579 15.6548 5.10557 15.6548 4.47811C15.6548 3.85067 15.1463 3.34091 14.5195 3.34091C13.8928 3.34091 13.3852 3.85067 13.3852 4.47811ZM4.61953 9.53749C4.61953 12.2255 6.79275 14.4048 9.47359 14.4048C12.1544 14.4048 14.3276 12.2255 14.3276 9.53749C14.3276 6.84951 12.1544 4.67161 9.47359 4.67161C6.79275 4.67161 4.61953 6.84951 4.61953 9.53749ZM6.32294 9.53749C6.32294 7.79353 7.73331 6.37859 9.47359 6.37859C11.2139 6.37859 12.6242 7.79353 12.6242 9.53749C12.6242 11.2824 11.2139 12.6978 9.47359 12.6978C7.73331 12.6978 6.32294 11.2824 6.32294 9.53749Z" fill="#E5E5E5"/>
</svg>
