<svg width="25" height="26" viewBox="0 0 25 26" fill="none" xmlns="http://www.w3.org/2000/svg">
<g clip-path="url(#clip0_49_17)">
<path d="M10.9375 22.75C10.9375 22.75 9.375 22.75 9.375 21.125C9.375 19.5 10.9375 14.625 17.1875 14.625C23.4375 14.625 25 19.5 25 21.125C25 22.75 23.4375 22.75 23.4375 22.75H10.9375ZM17.1875 13C18.4307 13 19.623 12.4864 20.5021 11.5721C21.3811 10.6579 21.875 9.41793 21.875 8.125C21.875 6.83207 21.3811 5.59209 20.5021 4.67785C19.623 3.76361 18.4307 3.25 17.1875 3.25C15.9443 3.25 14.752 3.76361 13.8729 4.67785C12.9939 5.59209 12.5 6.83207 12.5 8.125C12.5 9.41793 12.9939 10.6579 13.8729 11.5721C14.752 12.4864 15.9443 13 17.1875 13Z" fill="#BA7911"/>
<path fill-rule="evenodd" clip-rule="evenodd" d="M8.15 22.7507C7.91837 22.2434 7.80285 21.6872 7.8125 21.1257C7.8125 18.9238 8.875 16.6569 10.8375 15.0807C9.85795 14.7668 8.83742 14.6133 7.8125 14.6257C1.5625 14.6257 0 19.5007 0 21.1257C0 22.7507 1.5625 22.7507 1.5625 22.7507H8.15Z" fill="#BA7911"/>
<path d="M7.03125 13C8.06725 13 9.06082 12.572 9.79339 11.8101C10.526 11.0483 10.9375 10.0149 10.9375 8.9375C10.9375 7.86006 10.526 6.82675 9.79339 6.06488C9.06082 5.30301 8.06725 4.875 7.03125 4.875C5.99525 4.875 5.00168 5.30301 4.26911 6.06488C3.53655 6.82675 3.125 7.86006 3.125 8.9375C3.125 10.0149 3.53655 11.0483 4.26911 11.8101C5.00168 12.572 5.99525 13 7.03125 13Z" fill="#BA7911"/>
</g>
<defs>
<clipPath id="clip0_49_17">
<rect width="25" height="26" fill="white"/>
</clipPath>
</defs>
</svg>
