<svg width="25" height="26" viewBox="0 0 25 26" fill="none" xmlns="http://www.w3.org/2000/svg">
<path d="M22.1505 23.6678C22.1306 23.6715 22.0372 23.6889 21.8854 23.7172C15.8986 24.8331 14.7973 25.0247 14.6737 25.0396C14.3788 25.0752 14.1586 25.0572 14.0001 24.9846C13.9011 24.9392 13.8474 24.8841 13.8331 24.8599C13.8401 24.8168 13.8927 24.7141 13.9249 24.6514C13.9562 24.5904 13.9916 24.5213 14.0227 24.4476C14.2287 23.9586 14.0846 23.4627 13.6464 23.1531C13.3197 22.9223 12.8865 22.8287 12.3585 22.8746C12.0433 22.9021 6.51822 23.8654 3.4833 24.3967L1.99365 25.615C5.46767 25.0052 12.0861 23.8504 12.4343 23.8152C12.7454 23.7881 12.9881 23.8292 13.1364 23.9339C13.2225 23.9948 13.2141 24.0149 13.1914 24.0687C13.1744 24.109 13.1499 24.1567 13.1241 24.2072C13.0246 24.401 12.8884 24.6665 12.9335 24.9954C12.983 25.3561 13.2383 25.667 13.634 25.8484C13.8565 25.9503 14.1119 26.0008 14.408 26.0008C14.5249 26.0008 14.6482 25.993 14.7782 25.9773C15.0163 25.9485 17.4614 25.5007 22.0454 24.6462C22.1964 24.6181 22.2892 24.6008 22.3091 24.5971C22.5559 24.5516 22.7204 24.3066 22.6766 24.05C22.6328 23.7933 22.3974 23.6222 22.1505 23.6678Z" fill="#BA7911"/>
<path d="M6.0853 19.0806L2.23026 23.2744C1.80568 23.7363 1.50661 24.3071 1.36365 24.9286L6.8375 20.4517C8.55109 21.242 9.9199 21.4937 10.9689 21.4937C12.812 21.4937 13.6675 20.7163 13.6675 20.7163C11.9518 19.7878 11.7073 18.0549 11.7073 18.0549C13.0214 18.6326 15.7587 19.3137 15.7587 19.3137C19.394 16.7904 21.2939 11.3272 21.2939 11.3272C20.9175 11.4348 20.5575 11.4796 20.2183 11.4796C18.5122 11.4796 17.3399 10.3434 17.3399 10.3434L22.0892 9.26773C23.6682 5.89839 23.8192 0 23.8192 0L9.37956 13.3566C7.7443 14.8692 6.59449 16.8671 6.0853 19.0806Z" fill="#BA7911"/>
</svg>
