<svg width="42" height="42" viewBox="0 0 42 42" fill="none" xmlns="http://www.w3.org/2000/svg">
<path d="M14.9024 7.10079C17.5413 2.36694 18.8606 0 20.8333 0C22.806 0 24.1254 2.36692 26.7642 7.10077L27.4469 8.32548C28.1969 9.67069 28.5717 10.3433 29.1565 10.7871C29.741 11.2309 30.469 11.3956 31.9252 11.7251L33.251 12.0251C38.3752 13.1845 40.9375 13.7642 41.5471 15.7244C42.1567 17.6846 40.41 19.7273 36.9165 23.8123L36.0127 24.8692C35.02 26.03 34.5235 26.6104 34.3002 27.3285C34.0771 28.0467 34.1521 28.821 34.3021 30.37L34.4388 31.78C34.9669 37.2304 35.231 39.9556 33.6352 41.1671C32.0392 42.3785 29.6402 41.274 24.8423 39.065L23.601 38.4933C22.2377 37.8656 21.556 37.5517 20.8333 37.5517C20.1106 37.5517 19.429 37.8656 18.0656 38.4933L16.8244 39.065C12.0264 41.274 9.62746 42.3785 8.03157 41.1671C6.43567 39.9556 6.69975 37.2304 7.22792 31.78L7.36454 30.37C7.51465 28.821 7.58969 28.0467 7.36638 27.3285C7.14309 26.6104 6.64673 26.03 5.654 24.8692L4.75021 23.8123C1.25677 19.7273 -0.489954 17.6846 0.119629 15.7244C0.729212 13.7642 3.29138 13.1845 8.41571 12.0251L9.74144 11.7251C11.1976 11.3956 11.9257 11.2309 12.5103 10.7871C13.0949 10.3433 13.4699 9.67071 14.2197 8.32548L14.9024 7.10079Z" fill="#916767"/>
</svg>
