<svg width="21" height="21" viewBox="0 0 21 21" fill="none" xmlns="http://www.w3.org/2000/svg">
<path d="M15.8196 3.74303C15.0204 2.94048 14.5399 1.89402 14.5399 0.75H13.5383M15.8196 3.74303C16.5481 4.47471 17.5343 5.00682 18.6574 5.21518C19.0064 5.2817 19.3706 5.31721 19.75 5.31721V8.59841C17.8076 8.59841 16.0066 8.05307 14.5396 7.13074V13.8041C14.5396 17.1386 11.4438 19.848 7.64487 19.848C5.65681 19.848 3.86102 19.103 2.60143 17.9191C1.45315 16.8372 0.75 15.3916 0.75 13.8041C0.75 10.5184 3.7548 7.84021 7.47791 7.76926M15.8196 3.74303C15.8002 3.73192 15.7808 3.7207 15.7615 3.70936M5.09539 15.4093C4.72106 14.9571 4.49848 14.4028 4.49848 13.7997C4.49848 12.2789 5.90982 11.0417 7.64495 11.0417C7.96869 11.0417 8.28229 11.0904 8.57569 11.1702V7.81808C8.27216 7.78257 7.96362 7.76038 7.64495 7.76038C7.58927 7.76038 7.14106 7.78649 7.08541 7.78649M13.533 0.75H10.7913L10.7862 13.9061C10.7255 15.3783 9.33943 16.5623 7.64487 16.5623C6.59266 16.5623 5.66693 16.1055 5.09026 15.4138" stroke="#E5E5E5" stroke-width="1.5" stroke-linejoin="round"/>
</svg>
