<svg width="39" height="39" viewBox="0 0 39 39" fill="none" xmlns="http://www.w3.org/2000/svg">
<path d="M13.6519 6.53273C16.0693 2.17758 17.2779 0 19.0851 0C20.8923 0 22.1009 2.17756 24.5182 6.53271L25.1436 7.65944C25.8307 8.89703 26.174 9.51585 26.7098 9.92414C27.2453 10.3324 27.9121 10.484 29.2462 10.7871L30.4607 11.0631C35.1549 12.1297 37.5022 12.6631 38.0606 14.4665C38.619 16.2698 37.019 18.1491 33.8186 21.9073L32.9907 22.8796C32.0813 23.9476 31.6265 24.4816 31.4219 25.1423C31.2175 25.8029 31.2862 26.5154 31.4236 27.9404L31.5488 29.2376C32.0326 34.252 32.2746 36.7592 30.8127 37.8737C29.3506 38.9883 27.1529 37.972 22.7576 35.9398L21.6205 35.4139C20.3716 34.8364 19.7471 34.5475 19.0851 34.5475C18.423 34.5475 17.7986 34.8364 16.5496 35.4139L15.4125 35.9398C11.0172 37.972 8.81956 38.9883 7.35759 37.8737C5.89561 36.7592 6.13754 34.252 6.62138 29.2376L6.74654 27.9404C6.88405 26.5154 6.95279 25.8029 6.74822 25.1423C6.54367 24.4816 6.08897 23.9476 5.17954 22.8796L4.35159 21.9073C1.15131 18.1491 -0.448839 16.2698 0.10959 14.4665C0.66802 12.6631 3.01518 12.1297 7.7095 11.0631L8.92398 10.7871C10.2579 10.484 10.9249 10.3324 11.4605 9.92414C11.996 9.51585 12.3395 8.89705 13.0265 7.65944L13.6519 6.53273Z" fill="#CCBA16"/>
</svg>
